<svg width="346" height="350" viewBox="0 0 346 350" fill="none" xmlns="http://www.w3.org/2000/svg">
<path d="M114.911 161.389C114.911 161.389 119.848 174.908 132.293 174.908C144.737 174.908 150.64 161.389 150.64 161.389" stroke="#274553" stroke-width="3.97701" stroke-linecap="round"/>
<path d="M115.491 164.286L112.014 166.217" stroke="#274553" stroke-width="3.97701" stroke-linecap="round"/>
<path d="M132.293 179.736V174.908" stroke="#274553" stroke-width="3.97701" stroke-linecap="round"/>
<path d="M149.674 164.286L153.537 166.217" stroke="#274553" stroke-width="3.97701" stroke-linecap="round"/>
<path d="M121.948 171.884L118.774 175.874" stroke="#274553" stroke-width="3.97701" stroke-linecap="round"/>
<path d="M143.88 172.011L146.777 174.908" stroke="#274553" stroke-width="3.97701" stroke-linecap="round"/>
<path d="M195.361 161.389C195.361 161.389 200.298 174.908 212.743 174.908C225.187 174.908 231.09 161.389 231.09 161.389" stroke="#274553" stroke-width="3.97701" stroke-linecap="round"/>
<path d="M195.941 164.286L192.465 166.217" stroke="#274553" stroke-width="3.97701" stroke-linecap="round"/>
<path d="M212.743 179.736V174.908" stroke="#274553" stroke-width="3.97701" stroke-linecap="round"/>
<path d="M230.125 164.286L233.987 166.217" stroke="#274553" stroke-width="3.97701" stroke-linecap="round"/>
<path d="M202.398 171.884L199.224 175.874" stroke="#274553" stroke-width="3.97701" stroke-linecap="round"/>
<path d="M224.33 172.011L227.227 174.908" stroke="#274553" stroke-width="3.97701" stroke-linecap="round"/>
<path d="M215.635 130.247H130.801C120.238 130.247 96.4434 139.138 96.4434 162.097C96.4433 185.914 105.972 200.317 130.801 200.317C155.631 200.317 164.724 183.249 169.08 178.477C170.932 176.448 171.966 175.538 174.035 175.538C176.104 175.538 176.664 176.738 178.391 178.477C185.416 185.548 190.588 200.317 215.635 200.317C236.109 200.317 249.558 191.008 249.558 162.097C249.558 138.79 226.67 131.157 215.635 130.247Z" stroke="#274553" stroke-width="3.97701"/>
<path d="M272.023 65.517L270.072 65.1349V65.1349L272.023 65.517ZM262.622 57.3288L263.499 59.1131V59.1131L262.622 57.3288ZM259.744 128.216L257.792 127.834L257.395 129.863L259.438 130.181L259.744 128.216ZM260.144 128.279L260.449 126.314H260.449L260.144 128.279ZM288.24 156.483L290.125 155.85V155.85L288.24 156.483ZM287.008 158.894L286.39 157.004L286.39 157.004L287.008 158.894ZM276.918 172.257L276.612 174.222V174.222L276.918 172.257ZM297.476 208.137L299.464 208.127V208.127L297.476 208.137ZM294.886 209.891L294.235 211.77H294.235L294.886 209.891ZM259.529 208.742L259.679 210.725V210.725L259.529 208.742ZM220.426 230.962L221.793 232.405L221.9 232.304L221.991 232.188L220.426 230.962ZM215.445 235.678L214.078 234.234L213.695 234.596L213.542 235.1L215.445 235.678ZM136.496 241.12L138.345 240.39L138.183 239.98L137.863 239.676L136.496 241.12ZM125.768 230.962L124.203 232.188L124.294 232.304L124.401 232.405L125.768 230.962ZM86.6648 208.742L86.5151 210.725V210.725L86.6648 208.742ZM51.3076 209.891L51.9591 211.77H51.9591L51.3076 209.891ZM48.7183 208.137L50.7068 208.146V208.146L48.7183 208.137ZM69.2761 172.257L69.5818 174.222V174.222L69.2761 172.257ZM59.186 158.894L58.5683 160.784H58.5683L59.186 158.894ZM57.9543 156.483L59.8393 157.116L59.8393 157.116L57.9543 156.483ZM86.0504 128.279L85.7447 126.314H85.7447L86.0504 128.279ZM90.3197 127.614L90.6255 129.579L92.6686 129.261L92.2712 127.232L90.3197 127.614ZM78.2964 66.2219L76.345 66.6041V66.6041L78.2964 66.2219ZM87.6978 58.0337L86.8201 59.818V59.818L87.6978 58.0337ZM141.675 84.586L140.797 86.3703L141.628 86.7793L142.476 86.4058L141.675 84.586ZM208.218 84.0909L207.444 85.9227L208.281 86.276L209.096 85.8752L208.218 84.0909ZM273.974 65.8992C274.687 62.2603 273.309 58.8913 270.93 56.819C268.539 54.7366 265.054 53.9163 261.744 55.5445L263.499 59.1131C265.188 58.2825 266.973 58.6465 268.318 59.818C269.675 60.9998 270.499 62.9542 270.072 65.1349L273.974 65.8992ZM261.695 128.599L273.974 65.8992L270.072 65.1349L257.792 127.834L261.695 128.599ZM260.449 126.314L260.049 126.252L259.438 130.181L259.838 130.244L260.449 126.314ZM290.125 155.85C288.485 150.968 285.312 144.302 280.472 138.506C275.63 132.707 268.998 127.644 260.449 126.314L259.838 130.244C267.125 131.377 272.962 135.717 277.42 141.055C281.88 146.396 284.837 152.599 286.355 157.116L290.125 155.85ZM287.626 160.784C289.633 160.128 290.835 157.964 290.125 155.85L286.355 157.116C286.353 157.112 286.35 157.098 286.352 157.077C286.353 157.059 286.358 157.043 286.364 157.032C286.376 157.01 286.391 157.003 286.39 157.004L287.626 160.784ZM277.224 170.292C275.196 169.976 273.756 169.608 272.782 169.23C272.298 169.042 271.966 168.867 271.748 168.72C271.641 168.648 271.57 168.589 271.525 168.546C271.48 168.503 271.465 168.48 271.465 168.481C271.557 168.618 271.492 168.799 271.532 168.716C271.631 168.51 271.939 168.106 272.651 167.539C274.047 166.429 276.335 165.203 279.087 163.997C281.803 162.808 284.837 161.695 287.626 160.784L286.39 157.004C283.515 157.943 280.355 159.1 277.491 160.354C274.664 161.593 271.987 162.986 270.176 164.427C269.285 165.136 268.429 165.99 267.946 166.995C267.405 168.124 267.341 169.469 268.16 170.692C268.862 171.742 270.047 172.435 271.343 172.938C272.689 173.46 274.439 173.884 276.612 174.222L277.224 170.292ZM299.464 208.127C299.434 201.786 298.386 193.166 295.168 185.732C291.942 178.282 286.377 171.716 277.224 170.292L276.612 174.222C283.906 175.357 288.591 180.552 291.518 187.313C294.452 194.09 295.459 202.13 295.487 208.146L299.464 208.127ZM294.235 211.77C296.653 212.608 299.478 210.992 299.464 208.127L295.487 208.146C295.487 208.149 295.487 208.142 295.49 208.128C295.494 208.114 295.5 208.099 295.508 208.084C295.525 208.053 295.545 208.035 295.557 208.027C295.568 208.019 295.574 208.019 295.573 208.019C295.572 208.019 295.57 208.02 295.565 208.019C295.56 208.019 295.551 208.017 295.538 208.013L294.235 211.77ZM259.679 210.725C282.843 208.976 288.644 209.831 294.235 211.77L295.538 208.013C289.096 205.779 282.557 205.009 259.379 206.759L259.679 210.725ZM221.991 232.188C234.902 215.701 247.988 211.607 259.679 210.725L259.379 206.759C246.72 207.715 232.546 212.259 218.86 229.736L221.991 232.188ZM216.813 237.122L221.793 232.405L219.058 229.518L214.078 234.234L216.813 237.122ZM175.023 274.561C194.462 274.561 210.631 258.378 217.348 236.256L213.542 235.1C207.106 256.3 192.033 270.584 175.023 270.584V274.561ZM134.646 241.85C142.213 261.026 157.262 274.561 175.023 274.561V270.584C159.473 270.584 145.558 258.668 138.345 240.39L134.646 241.85ZM124.401 232.405L135.128 242.564L137.863 239.676L127.136 229.518L124.401 232.405ZM86.5151 210.725C98.2061 211.607 111.292 215.701 124.203 232.188L127.334 229.736C113.648 212.259 99.4738 207.715 86.8145 206.759L86.5151 210.725ZM51.9591 211.77C57.5504 209.831 63.3509 208.976 86.5151 210.725L86.8145 206.759C63.6373 205.009 57.098 205.779 50.6562 208.013L51.9591 211.77ZM46.7298 208.127C46.7163 210.992 49.5414 212.608 51.9591 211.77L50.6562 208.013C50.6427 208.017 50.6338 208.019 50.6292 208.019C50.6243 208.02 50.6219 208.019 50.6214 208.019C50.6197 208.019 50.6255 208.019 50.6369 208.027C50.6489 208.035 50.6689 208.053 50.6859 208.084C50.6943 208.099 50.7001 208.114 50.7035 208.128C50.707 208.142 50.7068 208.149 50.7068 208.146L46.7298 208.127ZM68.9704 170.292C59.8167 171.716 54.252 178.282 51.0264 185.732C47.8081 193.166 46.7597 201.786 46.7298 208.127L50.7068 208.146C50.7351 202.13 51.7418 194.09 54.676 187.313C57.6029 180.552 62.288 175.357 69.5818 174.222L68.9704 170.292ZM58.5683 160.784C61.3572 161.695 64.3911 162.808 67.1068 163.997C69.8587 165.203 72.1474 166.429 73.5425 167.539C74.2552 168.106 74.5633 168.51 74.6621 168.716C74.7019 168.799 74.6369 168.618 74.7288 168.481C74.7291 168.48 74.7138 168.503 74.669 168.546C74.6238 168.589 74.5526 168.648 74.4457 168.72C74.2277 168.867 73.8963 169.042 73.4124 169.23C72.4377 169.608 70.9983 169.976 68.9704 170.292L69.5818 174.222C71.7548 173.884 73.5047 173.46 74.8507 172.938C76.1469 172.435 77.3319 171.742 78.0342 170.692C78.8528 169.469 78.789 168.124 78.2475 166.995C77.7649 165.99 76.9091 165.136 76.0184 164.427C74.2065 162.986 71.5302 161.593 68.7026 160.354C65.8389 159.1 62.679 157.943 59.8037 157.004L58.5683 160.784ZM56.0693 155.85C55.3591 157.964 56.5606 160.128 58.5683 160.784L59.8037 157.004C59.8035 157.003 59.8183 157.01 59.8298 157.032C59.8355 157.043 59.8407 157.059 59.8423 157.077C59.844 157.098 59.8406 157.112 59.8393 157.116L56.0693 155.85ZM85.7447 126.314C77.1961 127.644 70.5643 132.707 65.7217 138.506C60.8816 144.302 57.709 150.968 56.0693 155.85L59.8393 157.116C61.3566 152.599 64.3144 146.396 68.7743 141.055C73.2316 135.717 79.0694 131.377 86.3562 130.244L85.7447 126.314ZM90.014 125.65L85.7447 126.314L86.3562 130.244L90.6255 129.579L90.014 125.65ZM76.345 66.6041L88.3683 127.997L92.2712 127.232L80.2478 65.8398L76.345 66.6041ZM88.5755 56.2494C85.2656 54.6212 81.7802 55.4416 79.3893 57.524C77.0101 59.5962 75.6323 62.9652 76.345 66.6041L80.2478 65.8398C79.8208 63.6591 80.6445 61.7047 82.0013 60.523C83.3465 59.3514 85.1317 58.9874 86.8201 59.818L88.5755 56.2494ZM142.553 82.8017L88.5755 56.2494L86.8201 59.818L140.797 86.3703L142.553 82.8017ZM175.52 75.5411C163.145 75.5411 151.403 78.1286 140.873 82.7662L142.476 86.4058C152.506 81.9885 163.703 79.5182 175.52 79.5182V75.5411ZM208.992 82.2591C198.766 77.9404 187.437 75.5411 175.52 75.5411V79.5182C186.9 79.5182 197.704 81.8088 207.444 85.9227L208.992 82.2591ZM261.744 55.5445L207.34 82.3066L209.096 85.8752L263.499 59.1131L261.744 55.5445Z" fill="#274553"/>
<path d="M178.103 243.123C176.544 245.14 173.517 245.191 171.892 243.227L161.275 230.399C159.149 227.83 160.938 223.943 164.272 223.886L185.071 223.538C188.405 223.482 190.324 227.307 188.285 229.946L178.103 243.123Z" stroke="#274553" stroke-width="3.97701"/>
<path d="M9.22667 319.245V314.027H21.2532C22.9076 314.027 24.3711 313.687 25.6438 313.009C26.9588 312.33 27.977 311.375 28.6981 310.145C29.4617 308.915 29.8435 307.451 29.8435 305.755C29.8435 304.058 29.4617 302.594 28.6981 301.364C27.977 300.134 26.9588 299.179 25.6438 298.501C24.3711 297.822 22.9076 297.482 21.2532 297.482H9.22667V292.265H21.6349C24.3499 292.265 26.7679 292.816 28.889 293.919C31.0525 295.022 32.7494 296.592 33.9796 298.628C35.2522 300.622 35.8886 302.997 35.8886 305.755C35.8886 308.47 35.2522 310.845 33.9796 312.881C32.7494 314.875 31.0525 316.445 28.889 317.59C26.7679 318.693 24.3499 319.245 21.6349 319.245H9.22667ZM5.21784 336.425V292.265H11.1993V336.425H5.21784ZM42.8528 336.425V306.2H48.5797V336.425H42.8528ZM45.7162 300.155C44.6557 300.155 43.7861 299.816 43.1073 299.137C42.4286 298.416 42.0892 297.525 42.0892 296.464C42.0892 295.446 42.4286 294.598 43.1073 293.919C43.7861 293.198 44.6557 292.837 45.7162 292.837C46.7768 292.837 47.6464 293.198 48.3252 293.919C49.0039 294.598 49.3433 295.446 49.3433 296.464C49.3433 297.525 49.0039 298.416 48.3252 299.137C47.6464 299.816 46.7768 300.155 45.7162 300.155ZM53.2015 349.724C51.2501 349.724 49.6169 349.406 48.3018 348.77C46.9443 348.134 45.7353 347.222 44.6748 346.034L48.3654 342.279C48.9593 343.001 49.6169 343.531 50.338 343.87C51.0168 344.21 51.844 344.379 52.8197 344.379C54.0923 344.379 55.1953 343.976 56.1286 343.17C57.0618 342.407 57.5285 341.24 57.5285 339.671V306.2H63.2554V339.607C63.2554 341.813 62.7887 343.658 61.8555 345.143C60.9222 346.628 59.692 347.752 58.1648 348.515C56.6376 349.321 54.9832 349.724 53.2015 349.724ZM60.4556 300.155C59.4374 300.155 58.589 299.816 57.9103 299.137C57.2315 298.416 56.8921 297.525 56.8921 296.464C56.8921 295.446 57.2315 294.598 57.9103 293.919C58.589 293.198 59.4374 292.837 60.4556 292.837C61.5161 292.837 62.3857 293.198 63.0645 293.919C63.7432 294.598 64.0826 295.446 64.0826 296.464C64.0826 297.525 63.7432 298.416 63.0645 299.137C62.3857 299.816 61.5161 300.155 60.4556 300.155ZM84.5384 337.062C81.781 337.062 79.2781 336.383 77.0298 335.025C74.7814 333.625 72.9997 331.738 71.6846 329.362C70.412 326.987 69.7757 324.314 69.7757 321.344C69.7757 318.375 70.412 315.702 71.6846 313.327C72.9997 310.951 74.7602 309.063 76.9661 307.664C79.2145 306.264 81.7385 305.564 84.5384 305.564C86.8291 305.564 88.8653 306.052 90.647 307.027C92.4712 307.96 93.9347 309.276 95.0377 310.972C96.1406 312.627 96.7557 314.557 96.883 316.763V325.862C96.7557 328.026 96.1406 329.956 95.0377 331.653C93.9771 333.35 92.5348 334.686 90.7107 335.662C88.929 336.595 86.8715 337.062 84.5384 337.062ZM85.4928 331.653C88.3351 331.653 90.6258 330.698 92.3651 328.789C94.1044 326.838 94.974 324.356 94.974 321.344C94.974 319.266 94.571 317.463 93.765 315.936C93.0014 314.366 91.8985 313.157 90.4561 312.309C89.0138 311.418 87.3382 310.972 85.4292 310.972C83.5202 310.972 81.8234 311.418 80.3386 312.309C78.8963 313.2 77.7509 314.43 76.9025 315.999C76.0965 317.527 75.6935 319.287 75.6935 321.281C75.6935 323.317 76.0965 325.12 76.9025 326.69C77.7509 328.217 78.9175 329.426 80.4023 330.317C81.887 331.207 83.5839 331.653 85.4928 331.653ZM94.5922 336.425V328.28L95.674 320.899L94.5922 313.581V306.2H100.383V336.425H94.5922ZM108.721 336.425V306.2H114.447V336.425H108.721ZM129.147 336.425V318.163C129.147 315.915 128.447 314.154 127.047 312.881C125.689 311.566 123.971 310.909 121.892 310.909C120.493 310.909 119.241 311.206 118.138 311.8C117.035 312.394 116.144 313.221 115.466 314.281C114.787 315.342 114.447 316.614 114.447 318.099L112.093 316.954C112.093 314.663 112.581 312.669 113.557 310.972C114.575 309.276 115.953 307.96 117.693 307.027C119.432 306.052 121.383 305.564 123.547 305.564C125.668 305.564 127.577 306.03 129.274 306.964C131.013 307.897 132.371 309.212 133.346 310.909C134.364 312.606 134.873 314.621 134.873 316.954V336.425H129.147ZM149.572 336.425V318.163C149.572 315.915 148.872 314.154 147.473 312.881C146.115 311.566 144.418 310.909 142.382 310.909C140.982 310.909 139.709 311.206 138.564 311.8C137.461 312.394 136.57 313.221 135.892 314.281C135.213 315.342 134.873 316.614 134.873 318.099L131.628 316.954C131.755 314.621 132.371 312.627 133.473 310.972C134.619 309.276 136.082 307.96 137.864 307.027C139.646 306.052 141.597 305.564 143.718 305.564C145.924 305.564 147.897 306.03 149.636 306.964C151.375 307.897 152.754 309.212 153.772 310.909C154.833 312.606 155.363 314.642 155.363 317.017V336.425H149.572ZM174.037 342.534C170.771 342.534 168.331 341.601 166.719 339.734C165.107 337.868 164.471 335.11 164.81 331.462L165.574 323.572C165.744 321.96 165.595 320.772 165.129 320.008C164.662 319.245 163.835 318.863 162.647 318.863H160.865V314.472H162.647C163.835 314.472 164.662 314.09 165.129 313.327C165.595 312.521 165.744 311.333 165.574 309.763L164.81 302.064C164.471 298.373 165.107 295.616 166.719 293.792C168.331 291.925 170.771 290.992 174.037 290.992H177.219V295.51H174.546C172.637 295.51 171.28 295.998 170.474 296.973C169.71 297.949 169.434 299.561 169.646 301.809L170.283 308.809C170.452 310.463 170.389 311.884 170.092 313.072C169.795 314.218 169.18 315.172 168.246 315.936C167.356 316.699 166.083 317.314 164.429 317.781V315.745C166.083 316.084 167.356 316.636 168.246 317.399C169.18 318.163 169.795 319.139 170.092 320.326C170.389 321.472 170.452 322.872 170.283 324.526L169.646 331.717C169.477 333.965 169.774 335.556 170.537 336.489C171.301 337.465 172.637 337.952 174.546 337.952H177.219V342.534H174.037ZM184.743 336.425V292.265H190.724V336.425H184.743ZM201.148 336.425V292.265H205.348L207.129 299.2V336.425H201.148ZM231.691 336.425L204.584 300.219L205.348 292.265L232.518 328.408L231.691 336.425ZM231.691 336.425L229.91 329.871V292.265H235.891V336.425H231.691ZM246.579 342.534H243.397V337.952H246.07C247.979 337.952 249.315 337.465 250.078 336.489C250.842 335.556 251.139 333.965 250.969 331.717L250.333 324.526C250.206 322.872 250.269 321.472 250.524 320.326C250.821 319.139 251.415 318.163 252.306 317.399C253.239 316.636 254.533 316.084 256.187 315.745V317.781C254.533 317.314 253.239 316.699 252.306 315.936C251.415 315.172 250.821 314.218 250.524 313.072C250.269 311.884 250.206 310.463 250.333 308.809L250.969 301.809C251.181 299.561 250.885 297.949 250.078 296.973C249.315 295.998 247.979 295.51 246.07 295.51H243.397V290.992H246.579C249.845 290.992 252.284 291.925 253.896 293.792C255.551 295.616 256.187 298.373 255.805 302.064L255.042 309.763C254.872 311.333 255.021 312.521 255.487 313.327C255.954 314.09 256.781 314.472 257.969 314.472H259.751V318.863H257.969C256.781 318.863 255.954 319.245 255.487 320.008C255.021 320.772 254.872 321.96 255.042 323.572L255.805 331.462C256.145 335.11 255.508 337.868 253.896 339.734C252.284 341.601 249.845 342.534 246.579 342.534ZM287.255 336.425V318.799C287.255 316.508 286.534 314.621 285.092 313.136C283.649 311.651 281.783 310.909 279.492 310.909C277.965 310.909 276.607 311.248 275.42 311.927C274.232 312.606 273.298 313.539 272.62 314.727C271.941 315.915 271.602 317.272 271.602 318.799L269.247 317.463C269.247 315.172 269.756 313.136 270.774 311.354C271.792 309.573 273.214 308.173 275.038 307.154C276.862 306.094 278.919 305.564 281.21 305.564C283.501 305.564 285.516 306.073 287.255 307.091C289.037 308.109 290.437 309.53 291.455 311.354C292.473 313.178 292.982 315.278 292.982 317.654V336.425H287.255ZM265.875 336.425V290.992H271.602V336.425H265.875ZM313.589 337.062C310.832 337.062 308.329 336.383 306.081 335.025C303.832 333.625 302.051 331.738 300.736 329.362C299.463 326.987 298.827 324.314 298.827 321.344C298.827 318.375 299.463 315.702 300.736 313.327C302.051 310.951 303.811 309.063 306.017 307.664C308.265 306.264 310.79 305.564 313.589 305.564C315.88 305.564 317.916 306.052 319.698 307.027C321.522 307.96 322.986 309.276 324.089 310.972C325.192 312.627 325.807 314.557 325.934 316.763V325.862C325.807 328.026 325.192 329.956 324.089 331.653C323.028 333.35 321.586 334.686 319.762 335.662C317.98 336.595 315.923 337.062 313.589 337.062ZM314.544 331.653C317.386 331.653 319.677 330.698 321.416 328.789C323.155 326.838 324.025 324.356 324.025 321.344C324.025 319.266 323.622 317.463 322.816 315.936C322.052 314.366 320.95 313.157 319.507 312.309C318.065 311.418 316.389 310.972 314.48 310.972C312.571 310.972 310.874 311.418 309.39 312.309C307.947 313.2 306.802 314.43 305.954 315.999C305.148 317.527 304.745 319.287 304.745 321.281C304.745 323.317 305.148 325.12 305.954 326.69C306.802 328.217 307.969 329.426 309.453 330.317C310.938 331.207 312.635 331.653 314.544 331.653ZM323.643 336.425V328.28L324.725 320.899L323.643 313.581V306.2H329.434V336.425H323.643Z" fill="#274553"/>
<path d="M138.575 51.7366L160.146 28.4473H138.575V24.1839H166.064V28.4473L144.301 51.7366H166.064V56H138.575V51.7366ZM174.884 51.2276L200.018 16.1662H174.884V11.4575H206.063V16.2299L180.802 51.2912H206.063V56H174.884V51.2276Z" fill="#274553"/>
</svg>
