<svg width="41" height="41" viewBox="0 0 41 41" fill="none" xmlns="http://www.w3.org/2000/svg">
<g clip-path="url(#clip0_34_1463)">
<path d="M19.2871 26.1204L11.4459 18.2792C11.2877 18.121 11.1623 17.9332 11.0767 17.7266C10.9911 17.5199 10.947 17.2985 10.947 17.0748C10.947 16.8511 10.9911 16.6296 11.0767 16.423C11.1623 16.2163 11.2877 16.0286 11.4459 15.8704C11.6041 15.7122 11.7918 15.5868 11.9985 15.5012C12.2051 15.4156 12.4266 15.3715 12.6503 15.3715C12.8739 15.3715 13.0954 15.4156 13.3021 15.5012C13.5087 15.5868 13.6965 15.7122 13.8546 15.8704L20.5001 22.4987L27.1284 15.8704C27.2866 15.7122 27.4743 15.5868 27.681 15.5012C27.8876 15.4156 28.1091 15.3715 28.3328 15.3715C28.5564 15.3715 28.7779 15.4156 28.9846 15.5012C29.1912 15.5868 29.379 15.7122 29.5371 15.8704C29.6953 16.0286 29.8208 16.2163 29.9064 16.423C29.992 16.6296 30.036 16.8511 30.036 17.0748C30.036 17.2985 29.992 17.5199 29.9064 17.7266C29.8208 17.9332 29.6953 18.121 29.5371 18.2792L21.6959 26.1204C21.5378 26.2788 21.3501 26.4044 21.1435 26.4901C20.9368 26.5759 20.7153 26.62 20.4915 26.62C20.2678 26.62 20.0462 26.5759 19.8396 26.4901C19.6329 26.4044 19.4452 26.2788 19.2871 26.1204Z" fill="#274553"/>
</g>
<defs>
<clipPath id="clip0_34_1463">
<rect width="41" height="41" fill="white" transform="matrix(1 0 0 -1 0 41)"/>
</clipPath>
</defs>
</svg>
